# xmcd
#
# Track frame offsets:
#	150
#	27091
#	46977
#	66283
#	86767
#	104926
#	131847
#	148590
#	166282
#	187798
#	202060
#	226220
#	246816
#
# Disc length: 3504 seconds
#
# Revision: 1
# Processed by: cddbd v1.4PL0 Copyright (c) Steve Scherf et al.
# Submitted via: EasyCDDAExtractor 5.0.6
#
DISCID=ba0dae0d
DTITLE=Deise Mikhail - Songs I Love - CD 1
DYEAR=1900
DGENRE=
TTITLE0=Sexual Healing
TTITLE1=One
TTITLE2=All Around the World
TTITLE3=Whole Lotta Love
TTITLE4=Close to Me
TTITLE5=Billie Jean
TTITLE6=No More I Love You's
TTITLE7=Get Up (Sex Machine)
TTITLE8=Is This Love?
TTITLE9=China Girl
TTITLE10=I Just Called to Say I Love You
TTITLE11=Angie
TTITLE12=China Girl (School Girl Mix)
EXTD=
EXTT0=
EXTT1=
EXTT2=
EXTT3=
EXTT4=
EXTT5=
EXTT6=
EXTT7=
EXTT8=
EXTT9=
EXTT10=
EXTT11=
EXTT12=
PLAYORDER=
